# xmcd
#
# Track frame offsets:
# 150
# 12887
# 27532
# 44110
# 60518
# 73342
# 91230
# 112340
# 128305
# 144253
# 155056
#
# Disc length: 2322 seconds
#
#
# Revision: 2
# Processed by: cddbd v1.5.1PL0 Copyright (c) Steve Scherf et al.
# Submitted via: FreeRIP 2.90 
#
DISCID=9b09100b
DTITLE=Joe Nichols - Revelation
DYEAR=2004
DGENRE=Country
TTITLE0=The Shade
TTITLE1=Singer In A Band
TTITLE2=Don't Ruin It For The Rest Of Us
TTITLE3=I Wish That Wasn't All
TTITLE4=If I Ever Get Her Back
TTITLE5=If Nobody Believed In You
TTITLE6=Farewell Party
TTITLE7=Things Like That (These Days)
TTITLE8=Revelation
TTITLE9=What's A Guy Gotta Do
TTITLE10=No Time To Cry
EXTD=YEAR: 2004
EXTT0=
EXTT1=
EXTT2=
EXTT3=
EXTT4=
EXTT5=
EXTT6=
EXTT7=
EXTT8=
EXTT9=
EXTT10=
PLAYORDER=
